<svg id="svg" version="1.1" xmlns="http://www.w3.org/2000/svg" xmlns:xlink="http://www.w3.org/1999/xlink" width="20" height="20" viewBox="0, 0, 400,400"><g id="svgg"><path id="path0" d="M133.777 94.705 C 133.545 94.867,132.408 97.790,131.250 101.200 C 130.093 104.610,128.987 107.760,128.793 108.200 C 128.599 108.640,128.171 109.810,127.842 110.800 C 127.513 111.790,126.501 114.670,125.592 117.200 C 124.684 119.730,123.497 123.150,122.954 124.800 C 122.411 126.450,121.810 128.160,121.618 128.600 C 121.426 129.040,120.330 132.100,119.182 135.400 C 118.034 138.700,116.206 143.920,115.121 147.000 C 110.280 160.743,108.324 166.325,107.763 168.000 C 107.431 168.990,107.015 170.160,106.839 170.600 C 106.662 171.040,106.207 172.300,105.826 173.400 C 105.446 174.500,104.058 178.460,102.741 182.200 C 101.425 185.940,99.565 191.250,98.609 194.000 C 97.652 196.750,95.943 201.610,94.810 204.800 C 93.678 207.990,92.414 211.590,92.001 212.800 C 91.589 214.010,90.509 217.070,89.600 219.600 C 88.691 222.130,87.614 225.190,87.206 226.400 C 86.797 227.610,85.442 231.480,84.193 235.000 C 82.945 238.520,81.229 243.380,80.381 245.800 C 79.533 248.220,77.916 252.810,76.788 256.000 C 75.660 259.190,74.403 262.790,73.995 264.000 C 73.586 265.210,72.509 268.270,71.600 270.800 C 70.691 273.330,69.615 276.390,69.208 277.600 C 68.800 278.810,67.388 282.860,66.069 286.600 C 64.750 290.340,62.925 295.560,62.014 298.200 C 61.102 300.840,60.193 303.360,59.994 303.800 C 58.806 306.423,56.209 306.200,87.965 306.200 L 116.529 306.200 117.510 303.400 C 118.049 301.860,119.628 297.270,121.019 293.200 C 124.867 281.935,124.895 281.855,125.253 281.000 C 125.437 280.560,126.233 278.220,127.021 275.800 C 127.809 273.380,128.717 270.994,129.038 270.498 L 129.622 269.595 161.266 269.698 L 192.911 269.800 193.560 271.871 C 193.916 273.009,194.341 274.074,194.504 274.237 C 194.667 274.400,194.800 274.923,194.800 275.400 C 194.800 275.877,194.910 276.377,195.044 276.511 C 195.179 276.645,197.500 283.380,200.202 291.478 L 205.115 306.200 233.757 306.303 C 252.155 306.369,262.400 306.266,262.400 306.016 C 262.400 305.607,256.926 289.649,255.603 286.200 C 255.181 285.100,253.912 281.500,252.784 278.200 C 250.952 272.838,248.100 264.700,244.795 255.400 C 243.781 252.544,240.605 243.437,235.938 230.000 C 235.059 227.470,233.784 223.870,233.104 222.000 C 232.424 220.130,231.643 217.880,231.368 217.000 C 231.093 216.120,229.939 212.790,228.804 209.600 C 227.669 206.410,225.299 199.660,223.538 194.600 C 220.385 185.544,219.149 182.027,216.825 175.500 C 216.179 173.685,213.014 164.640,209.793 155.400 C 206.572 146.160,203.483 137.340,202.929 135.800 C 202.375 134.260,200.933 130.120,199.724 126.600 C 198.515 123.080,197.194 119.570,196.788 118.800 C 196.382 118.030,195.667 116.230,195.199 114.800 C 194.731 113.370,194.194 111.840,194.007 111.400 C 193.820 110.960,193.575 110.240,193.463 109.800 C 193.266 109.026,192.338 106.375,189.473 98.400 L 188.109 94.600 161.154 94.505 C 146.329 94.452,134.010 94.542,133.777 94.705 M161.712 165.900 C 162.041 166.725,162.495 168.030,162.720 168.800 C 162.945 169.570,167.076 181.900,171.900 196.200 C 176.723 210.500,180.594 222.425,180.502 222.700 C 180.277 223.367,143.595 223.435,142.929 222.769 C 142.469 222.309,142.673 221.076,143.715 218.000 C 144.230 216.481,145.835 211.267,147.225 206.600 C 147.422 205.940,147.935 204.320,148.367 203.000 C 148.798 201.680,149.595 199.070,150.137 197.200 C 151.174 193.622,155.788 178.511,156.366 176.800 C 156.551 176.250,157.104 174.450,157.593 172.800 C 158.082 171.150,158.644 169.487,158.841 169.105 C 159.038 168.723,159.200 168.160,159.200 167.854 C 159.200 166.988,160.370 164.400,160.762 164.400 C 160.955 164.400,161.382 165.075,161.712 165.900 " stroke="none" fill="#fafbfb" fill-rule="evenodd"></path><path id="path1" d="M207.400 94.665 C 200.082 95.691,197.988 99.198,197.706 110.900 C 197.599 115.373,197.355 118.800,197.144 118.800 C 196.915 118.800,196.915 119.068,197.145 119.500 C 197.350 119.885,198.509 123.080,199.720 126.600 C 200.931 130.120,202.375 134.260,202.929 135.800 C 203.483 137.340,206.572 146.160,209.793 155.400 C 213.014 164.640,216.179 173.685,216.825 175.500 C 219.149 182.027,220.385 185.544,223.538 194.600 C 225.299 199.660,227.668 206.410,228.801 209.600 C 229.933 212.790,231.187 216.390,231.587 217.600 C 231.987 218.810,232.893 221.420,233.600 223.400 C 234.879 226.983,238.900 238.468,242.211 248.000 C 243.931 252.950,247.756 263.833,250.085 270.400 C 250.748 272.270,252.162 276.320,253.227 279.400 C 254.291 282.480,256.061 287.520,257.160 290.600 C 258.259 293.680,259.929 298.501,260.872 301.312 L 262.585 306.425 297.393 306.312 L 332.200 306.200 334.000 305.257 C 340.050 302.086,340.361 300.845,340.378 279.800 C 340.393 260.088,340.170 258.720,336.420 255.510 C 333.381 252.909,335.686 253.047,291.600 252.813 L 251.400 252.600 251.192 177.800 C 251.004 109.739,250.926 102.856,250.330 101.401 C 249.362 99.038,247.394 96.905,245.063 95.695 L 243.000 94.622 225.800 94.560 C 216.340 94.525,208.060 94.573,207.400 94.665 " stroke="none" fill="#04acfb" fill-rule="evenodd"></path><path id="path2" d="M0.000 200.000 L 0.000 400.000 200.000 400.000 L 400.000 400.000 400.000 200.000 L 400.000 0.000 200.000 0.000 L 0.000 0.000 0.000 200.000 M188.443 94.252 C 188.741 94.611,189.283 95.826,189.648 96.952 C 190.014 98.078,191.426 102.150,192.786 106.000 C 194.147 109.850,195.561 113.900,195.930 115.000 L 196.600 117.000 196.841 110.600 C 197.443 94.656,199.119 93.637,224.789 93.614 C 245.351 93.596,248.166 94.405,250.878 101.117 L 251.800 103.400 251.908 177.700 L 252.016 252.000 290.308 252.007 C 334.804 252.015,333.899 251.945,337.551 255.671 C 338.761 256.906,339.135 257.555,340.344 260.519 C 341.248 262.736,340.957 296.982,340.012 299.567 C 338.584 303.474,336.297 305.341,331.366 306.626 C 328.172 307.458,205.541 307.492,204.851 306.662 C 204.606 306.366,201.968 298.761,198.989 289.762 C 196.010 280.763,193.416 273.040,193.223 272.600 C 193.030 272.160,192.771 271.484,192.648 271.098 C 192.436 270.434,190.666 270.401,160.952 270.498 L 129.481 270.600 127.741 275.600 C 126.784 278.350,125.021 283.480,123.822 287.000 C 119.555 299.532,117.171 306.153,116.738 306.675 C 115.891 307.695,58.584 307.226,58.657 306.200 C 58.688 305.760,59.469 303.330,60.391 300.800 C 61.313 298.270,62.158 295.840,62.267 295.400 C 62.377 294.960,62.620 294.240,62.807 293.800 C 63.155 292.979,63.660 291.559,68.144 278.800 C 73.663 263.094,75.543 257.708,76.382 255.200 C 76.861 253.770,77.413 252.240,77.609 251.800 C 77.806 251.360,78.413 249.650,78.958 248.000 C 79.503 246.350,80.515 243.470,81.206 241.600 C 81.897 239.730,82.799 237.210,83.210 236.000 C 83.621 234.790,84.402 232.540,84.946 231.000 C 86.869 225.557,90.854 214.171,91.596 212.000 C 92.010 210.790,93.089 207.730,93.994 205.200 C 94.899 202.670,96.088 199.250,96.637 197.600 C 97.185 195.950,97.797 194.240,97.997 193.800 C 98.196 193.360,98.627 192.190,98.953 191.200 C 99.279 190.210,100.379 187.060,101.398 184.200 C 102.417 181.340,103.578 178.010,103.979 176.800 C 104.713 174.585,107.955 165.457,109.590 161.000 C 110.074 159.680,110.559 158.240,110.668 157.800 C 110.777 157.360,111.023 156.640,111.213 156.200 C 111.404 155.760,111.828 154.590,112.156 153.600 C 112.484 152.610,113.487 149.730,114.384 147.200 C 115.281 144.670,116.466 141.250,117.017 139.600 C 117.569 137.950,118.182 136.240,118.381 135.800 C 118.708 135.075,120.438 130.142,124.272 119.000 C 125.029 116.800,125.808 114.640,126.004 114.200 C 126.200 113.760,126.630 112.590,126.959 111.600 C 128.444 107.145,130.460 101.329,130.774 100.600 C 130.963 100.160,131.518 98.630,132.007 97.200 C 132.496 95.770,133.077 94.375,133.297 94.100 C 133.989 93.237,187.724 93.385,188.443 94.252 M159.615 168.491 C 158.195 172.952,157.218 176.078,156.831 177.400 C 156.638 178.060,155.924 180.400,155.245 182.600 C 154.566 184.800,152.924 190.200,151.596 194.600 C 150.268 199.000,149.020 203.050,148.822 203.600 C 148.624 204.150,147.979 206.220,147.389 208.200 C 146.798 210.180,145.614 213.990,144.757 216.667 C 143.901 219.343,143.200 221.728,143.200 221.967 C 143.200 222.271,148.647 222.400,161.558 222.400 L 179.916 222.400 179.591 221.100 C 179.276 219.838,165.884 179.803,165.241 178.200 C 164.897 177.343,164.728 176.852,162.558 170.400 C 160.757 165.046,160.719 165.022,159.615 168.491 " stroke="none" fill="#1b242c" fill-rule="evenodd"></path><path id="path3" d="M133.297 94.100 C 133.077 94.375,132.496 95.770,132.007 97.200 C 131.518 98.630,130.963 100.160,130.774 100.600 C 130.460 101.329,128.444 107.145,126.959 111.600 C 126.630 112.590,126.200 113.760,126.004 114.200 C 125.808 114.640,125.029 116.800,124.272 119.000 C 120.438 130.142,118.708 135.075,118.381 135.800 C 118.182 136.240,117.569 137.950,117.017 139.600 C 116.466 141.250,115.281 144.670,114.384 147.200 C 113.487 149.730,112.484 152.610,112.156 153.600 C 111.828 154.590,111.404 155.760,111.213 156.200 C 111.023 156.640,110.777 157.360,110.668 157.800 C 110.559 158.240,110.074 159.680,109.590 161.000 C 107.955 165.457,104.713 174.585,103.979 176.800 C 103.578 178.010,102.417 181.340,101.398 184.200 C 100.379 187.060,99.279 190.210,98.953 191.200 C 98.627 192.190,98.196 193.360,97.997 193.800 C 97.797 194.240,97.185 195.950,96.637 197.600 C 96.088 199.250,94.899 202.670,93.994 205.200 C 93.089 207.730,92.010 210.790,91.596 212.000 C 90.854 214.171,86.869 225.557,84.946 231.000 C 84.402 232.540,83.621 234.790,83.210 236.000 C 82.799 237.210,81.897 239.730,81.206 241.600 C 80.515 243.470,79.503 246.350,78.958 248.000 C 78.413 249.650,77.806 251.360,77.609 251.800 C 77.413 252.240,76.861 253.770,76.382 255.200 C 75.543 257.708,73.663 263.094,68.144 278.800 C 63.660 291.559,63.155 292.979,62.807 293.800 C 62.620 294.240,62.377 294.960,62.267 295.400 C 62.158 295.840,61.313 298.270,60.391 300.800 C 59.469 303.330,58.688 305.760,58.657 306.200 C 58.584 307.226,115.891 307.695,116.738 306.675 C 117.171 306.153,119.555 299.532,123.822 287.000 C 125.021 283.480,126.784 278.350,127.741 275.600 L 129.481 270.600 160.952 270.498 C 190.666 270.401,192.436 270.434,192.648 271.098 C 192.771 271.484,193.030 272.160,193.223 272.600 C 193.416 273.040,196.010 280.763,198.989 289.762 C 201.968 298.761,204.606 306.366,204.851 306.662 C 205.411 307.336,262.400 307.476,262.400 306.803 C 262.400 306.544,252.390 306.369,233.757 306.303 L 205.115 306.200 200.202 291.478 C 197.500 283.380,195.179 276.645,195.044 276.511 C 194.910 276.377,194.800 275.877,194.800 275.400 C 194.800 274.923,194.667 274.400,194.504 274.237 C 194.341 274.074,193.916 273.009,193.560 271.871 L 192.911 269.800 161.266 269.698 L 129.622 269.595 129.038 270.498 C 128.717 270.994,127.809 273.380,127.021 275.800 C 126.233 278.220,125.437 280.560,125.253 281.000 C 124.895 281.855,124.867 281.935,121.019 293.200 C 119.628 297.270,118.049 301.860,117.510 303.400 L 116.529 306.200 87.965 306.200 C 56.209 306.200,58.806 306.423,59.994 303.800 C 60.193 303.360,61.102 300.840,62.014 298.200 C 62.925 295.560,64.750 290.340,66.069 286.600 C 67.388 282.860,68.800 278.810,69.208 277.600 C 69.615 276.390,70.691 273.330,71.600 270.800 C 72.509 268.270,73.586 265.210,73.995 264.000 C 74.403 262.790,75.660 259.190,76.788 256.000 C 77.916 252.810,79.533 248.220,80.381 245.800 C 81.229 243.380,82.945 238.520,84.193 235.000 C 85.442 231.480,86.797 227.610,87.206 226.400 C 87.614 225.190,88.691 222.130,89.600 219.600 C 90.509 217.070,91.589 214.010,92.001 212.800 C 92.414 211.590,93.678 207.990,94.810 204.800 C 95.943 201.610,97.652 196.750,98.609 194.000 C 99.565 191.250,101.425 185.940,102.741 182.200 C 104.058 178.460,105.446 174.500,105.826 173.400 C 106.207 172.300,106.662 171.040,106.839 170.600 C 107.015 170.160,107.431 168.990,107.763 168.000 C 108.324 166.325,110.280 160.743,115.121 147.000 C 116.206 143.920,118.034 138.700,119.182 135.400 C 120.330 132.100,121.426 129.040,121.618 128.600 C 121.810 128.160,122.411 126.450,122.954 124.800 C 123.497 123.150,124.684 119.730,125.592 117.200 C 126.501 114.670,127.513 111.790,127.842 110.800 C 128.171 109.810,128.599 108.640,128.793 108.200 C 128.987 107.760,130.093 104.610,131.250 101.200 C 132.408 97.790,133.545 94.867,133.777 94.705 C 134.010 94.542,146.329 94.452,161.154 94.505 L 188.109 94.600 189.473 98.400 C 192.819 107.716,193.284 109.058,193.489 110.000 C 193.609 110.550,193.830 111.180,193.979 111.400 C 194.129 111.620,194.678 113.150,195.200 114.800 C 196.104 117.657,196.743 118.990,197.058 118.675 C 197.137 118.596,196.376 116.207,195.366 113.366 C 194.356 110.525,193.199 107.210,192.794 106.000 C 190.682 99.693,188.826 94.713,188.391 94.189 C 187.718 93.379,133.945 93.292,133.297 94.100 M159.805 165.849 C 159.472 166.646,159.200 167.548,159.200 167.854 C 159.200 168.160,159.038 168.723,158.841 169.105 C 158.644 169.487,158.082 171.150,157.593 172.800 C 157.104 174.450,156.551 176.250,156.366 176.800 C 155.788 178.511,151.174 193.622,150.137 197.200 C 149.595 199.070,148.798 201.680,148.367 203.000 C 147.935 204.320,147.422 205.940,147.225 206.600 C 145.835 211.267,144.230 216.481,143.715 218.000 C 142.673 221.076,142.469 222.309,142.929 222.769 C 143.595 223.435,180.277 223.367,180.502 222.700 C 180.594 222.425,176.723 210.500,171.900 196.200 C 167.076 181.900,162.945 169.570,162.720 168.800 C 161.391 164.258,160.744 163.603,159.805 165.849 M162.558 170.400 C 164.728 176.852,164.897 177.343,165.241 178.200 C 165.884 179.803,179.276 219.838,179.591 221.100 L 179.916 222.400 161.558 222.400 C 148.647 222.400,143.200 222.271,143.200 221.967 C 143.200 221.728,143.901 219.343,144.757 216.667 C 145.614 213.990,146.798 210.180,147.389 208.200 C 147.979 206.220,148.624 204.150,148.822 203.600 C 149.020 203.050,150.268 199.000,151.596 194.600 C 152.924 190.200,154.566 184.800,155.245 182.600 C 155.924 180.400,156.638 178.060,156.831 177.400 C 157.024 176.740,157.521 175.120,157.936 173.800 C 160.967 164.143,160.555 164.446,162.558 170.400 " stroke="none" fill="#949c9c" fill-rule="evenodd"></path><path id="path4" d="M206.596 94.180 C 198.976 96.049,196.794 99.960,196.806 111.732 C 196.815 120.866,197.482 120.290,197.706 110.955 C 197.963 100.215,199.032 97.714,204.289 95.551 L 206.600 94.600 224.600 94.600 L 242.600 94.600 244.855 95.674 C 247.331 96.852,249.318 98.931,250.330 101.401 C 250.926 102.856,251.004 109.739,251.192 177.800 L 251.400 252.600 291.600 252.813 C 335.686 253.047,333.381 252.909,336.420 255.510 C 340.170 258.720,340.393 260.088,340.378 279.800 C 340.361 300.845,340.050 302.086,334.000 305.257 L 332.200 306.200 297.300 306.313 C 275.133 306.384,262.400 306.566,262.400 306.813 C 262.400 307.501,328.696 307.321,331.366 306.626 C 336.297 305.341,338.584 303.474,340.012 299.567 C 340.957 296.982,341.248 262.736,340.344 260.519 C 339.135 257.555,338.761 256.906,337.551 255.671 C 333.899 251.945,334.804 252.015,290.308 252.007 L 252.016 252.000 251.908 177.700 L 251.800 103.400 250.878 101.117 C 249.599 97.952,246.933 95.606,243.318 94.465 C 240.031 93.428,210.595 93.199,206.596 94.180 " stroke="none" fill="#0473aa" fill-rule="evenodd"></path></g></svg>